<svg xmlns="http://www.w3.org/2000/svg" xmlns:xlink="http://www.w3.org/1999/xlink" width="201" zoomAndPan="magnify" viewBox="0 0 150.75 150.749998" height="201" preserveAspectRatio="xMidYMid meet" version="1.0"><defs><clipPath id="9739e86005"><path d="M 4.808594 4.808594 L 145.574219 4.808594 L 145.574219 145.574219 L 4.808594 145.574219 Z M 4.808594 4.808594 " clip-rule="nonzero"/></clipPath><clipPath id="be164c5ab2"><path d="M 43 30 L 108 30 L 108 145.574219 L 43 145.574219 Z M 43 30 " clip-rule="nonzero"/></clipPath></defs><g clip-path="url(#9739e86005)"><path fill="#0866ff" d="M 145.59375 75.203125 C 145.59375 36.324219 114.078125 4.808594 75.203125 4.808594 C 36.328125 4.808594 4.808594 36.324219 4.808594 75.203125 C 4.808594 108.214844 27.535156 135.921875 58.195312 143.527344 L 58.195312 96.71875 L 43.675781 96.71875 L 43.675781 75.203125 L 58.195312 75.203125 L 58.195312 65.933594 C 58.195312 41.976562 69.039062 30.871094 92.558594 30.871094 C 97.019531 30.871094 104.714844 31.742188 107.863281 32.621094 L 107.863281 52.117188 C 106.199219 51.941406 103.3125 51.851562 99.730469 51.851562 C 88.1875 51.851562 83.726562 56.222656 83.726562 67.589844 L 83.726562 75.199219 L 106.71875 75.199219 L 102.769531 96.710938 L 83.726562 96.710938 L 83.726562 145.074219 C 118.582031 140.867188 145.59375 111.183594 145.59375 75.199219 Z M 145.59375 75.203125 " fill-opacity="1" fill-rule="nonzero"/></g><g clip-path="url(#be164c5ab2)"><path fill="#ffffff" d="M 102.777344 96.710938 L 106.726562 75.199219 L 83.734375 75.199219 L 83.734375 67.589844 C 83.734375 56.222656 88.195312 51.851562 99.738281 51.851562 C 103.320312 51.851562 106.207031 51.941406 107.867188 52.117188 L 107.867188 32.621094 C 104.722656 31.75 97.027344 30.871094 92.566406 30.871094 C 69.042969 30.871094 58.203125 41.976562 58.203125 65.933594 L 58.203125 75.203125 L 43.683594 75.203125 L 43.683594 96.71875 L 58.203125 96.71875 L 58.203125 143.527344 C 63.648438 144.878906 69.339844 145.601562 75.210938 145.601562 C 78.097656 145.601562 80.941406 145.421875 83.738281 145.082031 L 83.738281 96.71875 L 102.78125 96.71875 Z M 102.777344 96.710938 " fill-opacity="1" fill-rule="nonzero"/></g></svg>