<svg xmlns="http://www.w3.org/2000/svg" xmlns:xlink="http://www.w3.org/1999/xlink" width="64" zoomAndPan="magnify" viewBox="0 0 48 48" height="64" preserveAspectRatio="xMidYMid meet" version="1.0"><defs><clipPath id="099ed8321f"><path d="M 0.488281 0 L 15.769531 0 L 15.769531 47.019531 L 0.488281 47.019531 Z M 0.488281 0 " clip-rule="nonzero"/></clipPath><clipPath id="88271cee43"><path d="M 0.488281 0 L 15.769531 0 L 15.769531 47.019531 L 0.488281 47.019531 Z M 0.488281 0 " clip-rule="nonzero"/></clipPath><clipPath id="5348367ff2"><rect x="0" width="16" y="0" height="48"/></clipPath><clipPath id="1ce0e71e1a"><path d="M 15.769531 0 L 32.523438 0 L 32.523438 47.019531 L 15.769531 47.019531 Z M 15.769531 0 " clip-rule="nonzero"/></clipPath><clipPath id="bd7a37cd0c"><path d="M 0.769531 0 L 17.523438 0 L 17.523438 47.019531 L 0.769531 47.019531 Z M 0.769531 0 " clip-rule="nonzero"/></clipPath><clipPath id="35018af7a4"><rect x="0" width="18" y="0" height="48"/></clipPath><clipPath id="73d3e91709"><path d="M 32.523438 0 L 47.507812 0 L 47.507812 47.019531 L 32.523438 47.019531 Z M 32.523438 0 " clip-rule="nonzero"/></clipPath><clipPath id="14b0ed075a"><path d="M 0.523438 0 L 15.507812 0 L 15.507812 47.019531 L 0.523438 47.019531 Z M 0.523438 0 " clip-rule="nonzero"/></clipPath><clipPath id="6c13f57029"><rect x="0" width="16" y="0" height="48"/></clipPath></defs><g clip-path="url(#099ed8321f)"><g transform="matrix(1, 0, 0, 1, 0.000000000000000056, 0.000000000000005041)"><g clip-path="url(#5348367ff2)"><g clip-path="url(#88271cee43)"><path fill="#5e17eb" d="M 0.488281 0 L 15.769531 0 L 15.769531 47.039062 L 0.488281 47.039062 Z M 0.488281 0 " fill-opacity="1" fill-rule="nonzero"/></g></g></g></g><g clip-path="url(#1ce0e71e1a)"><g transform="matrix(1, 0, 0, 1, 15, 0.000000000000005041)"><g clip-path="url(#35018af7a4)"><g clip-path="url(#bd7a37cd0c)"><path fill="#ffffff" d="M 0.769531 0 L 17.523438 0 L 17.523438 47.046875 L 0.769531 47.046875 Z M 0.769531 0 " fill-opacity="1" fill-rule="nonzero"/></g></g></g></g><g clip-path="url(#73d3e91709)"><g transform="matrix(1, 0, 0, 1, 32, 0.000000000000005041)"><g clip-path="url(#6c13f57029)"><g clip-path="url(#14b0ed075a)"><path fill="#ff3131" d="M 0.523438 0 L 15.511719 0 L 15.511719 47.011719 L 0.523438 47.011719 Z M 0.523438 0 " fill-opacity="1" fill-rule="nonzero"/></g></g></g></g></svg>