<svg xmlns="http://www.w3.org/2000/svg" xmlns:xlink="http://www.w3.org/1999/xlink" width="512" zoomAndPan="magnify" viewBox="0 0 384 383.999986" height="512" preserveAspectRatio="xMidYMid meet" version="1.0"><defs><clipPath id="de40c21766"><path d="M 38.398438 125 L 198 125 L 198 319 L 38.398438 319 Z M 38.398438 125 " clip-rule="nonzero"/></clipPath><clipPath id="0eb1cbbad1"><path d="M 255 118 L 345.898438 118 L 345.898438 305 L 255 305 Z M 255 118 " clip-rule="nonzero"/></clipPath><clipPath id="9f71465b3a"><path d="M 229 298 L 254 298 L 254 328.25 L 229 328.25 Z M 229 298 " clip-rule="nonzero"/></clipPath></defs><g clip-path="url(#de40c21766)"><path fill="#ffca94" d="M 197.210938 272.917969 C 189.558594 278.15625 172.65625 288.171875 156.65625 295.789062 C 147.300781 300.246094 140.179688 306.902344 132.898438 318.457031 L 38.425781 318.457031 C 57.527344 290.394531 71.933594 269.183594 72.550781 267.679688 C 76.039062 259.171875 79.582031 229.136719 80.476562 201.828125 C 83.328125 165.1875 91.539062 145.335938 99.9375 135.238281 C 119.609375 111.59375 122.121094 135.4375 115.15625 152.875 C 87.332031 222.515625 144.796875 272.917969 145.625 272.917969 Z M 197.210938 272.917969 " fill-opacity="1" fill-rule="evenodd"/></g><path fill="#ffca94" d="M 110.222656 168.414062 C 110.222656 168.414062 106.496094 188.535156 136.273438 181.132812 C 166.050781 173.734375 169.753906 202.277344 170.457031 207.210938 C 171.160156 212.144531 186.667969 266.761719 173.980469 277.335938 C 161.292969 287.90625 105.261719 297.421875 104.910156 293.546875 C 104.558594 289.667969 70.375 169.152344 110.222656 168.414062 Z M 110.222656 168.414062 " fill-opacity="1" fill-rule="evenodd"/><path fill="#373435" d="M 137.953125 56 L 204.792969 56 C 215.414062 56 224.101562 64.6875 224.101562 75.308594 L 224.101562 253.605469 C 224.101562 264.226562 215.414062 272.917969 204.792969 272.917969 L 137.953125 272.917969 C 127.335938 272.917969 118.644531 264.226562 118.644531 253.605469 L 118.644531 75.308594 C 118.644531 64.6875 127.335938 56 137.953125 56 Z M 137.953125 56 " fill-opacity="1" fill-rule="evenodd"/><path fill="#fefefe" d="M 137.953125 61.941406 L 204.792969 61.941406 C 212.144531 61.941406 218.160156 67.957031 218.160156 75.308594 L 218.160156 253.605469 C 218.160156 260.960938 212.144531 266.976562 204.792969 266.976562 L 137.953125 266.976562 C 130.601562 266.976562 124.585938 260.960938 124.585938 253.605469 L 124.585938 75.308594 C 124.585938 67.957031 130.601562 61.941406 137.953125 61.941406 Z M 137.953125 61.941406 " fill-opacity="1" fill-rule="evenodd"/><path fill="#ffca94" d="M 237.953125 191.296875 C 237.953125 191.296875 231.699219 188.300781 222.621094 192.96875 C 213.546875 197.636719 217.070312 205.125 218.832031 208.914062 C 220.597656 212.703125 227.996094 214.203125 234.957031 211.910156 C 241.917969 209.617188 249.757812 201.339844 237.953125 191.296875 Z M 237.953125 191.296875 " fill-opacity="1" fill-rule="evenodd"/><path fill="#ffdec2" d="M 231.167969 194.996094 C 231.167969 194.996094 220.925781 192.949219 219.097656 199.003906 C 218.878906 201.03125 219.761719 206.800781 223.855469 208.339844 C 227.953125 209.882812 232.445312 207.328125 233.503906 203.011719 C 234.558594 198.695312 231.167969 194.996094 231.167969 194.996094 Z M 231.167969 194.996094 " fill-opacity="1" fill-rule="evenodd"/><path fill="#ffca94" d="M 213.902344 227.238281 C 213.902344 227.238281 209.101562 232.832031 213.242188 237.589844 C 217.382812 242.347656 221.964844 241.332031 223.152344 242.65625 C 224.339844 243.976562 224.144531 244.109375 224.101562 246.136719 C 224.058594 248.160156 223.992188 250.566406 223.992188 250.566406 C 223.992188 250.566406 238.964844 243.714844 241.125 239.308594 C 243.285156 234.902344 241.078125 230.148438 237.6875 227.195312 C 234.296875 224.242188 231.035156 224.242188 227.160156 224.242188 C 223.285156 224.242188 217.425781 223.320312 213.902344 227.238281 Z M 213.902344 227.238281 " fill-opacity="1" fill-rule="evenodd"/><path fill="#ffdec2" d="M 218.570312 227.195312 C 218.570312 227.195312 215.929688 228.519531 215.707031 231.953125 C 215.488281 235.390625 216.058594 237.632812 218.085938 238.515625 C 220.113281 239.394531 231.082031 240.148438 231.390625 232.4375 C 231.390625 229.089844 227.820312 224.949219 218.570312 227.195312 Z M 218.570312 227.195312 " fill-opacity="1" fill-rule="evenodd"/><path fill="#ffca94" d="M 224.164062 157.292969 C 245.066406 146.492188 255.386719 168.128906 225.574219 184.691406 C 223.992188 186.101562 224.078125 186.101562 224.078125 186.101562 Z M 224.164062 157.292969 " fill-opacity="1" fill-rule="evenodd"/><path fill="#ffca94" d="M 224.386719 119.148438 C 224.386719 119.148438 241.960938 113.554688 243.988281 124.390625 C 246.015625 135.226562 235.644531 144.5625 224.101562 148.265625 C 224.101562 134.167969 224.386719 119.148438 224.386719 119.148438 Z M 224.386719 119.148438 " fill-opacity="1" fill-rule="evenodd"/><path fill="#373435" d="M 147.871094 60.277344 L 194.875 60.277344 L 194.875 64.5 C 194.875 66.824219 192.976562 68.726562 190.652344 68.726562 L 152.09375 68.726562 C 149.773438 68.726562 147.871094 66.824219 147.871094 64.5 Z M 147.871094 60.277344 " fill-opacity="1" fill-rule="evenodd"/><path fill="#359631" d="M 175.546875 203.277344 L 175.546875 211.484375 L 167.699219 211.484375 L 167.699219 203.375 C 163.183594 203.019531 158.761719 202.074219 154.515625 200.460938 C 150.53125 198.949219 146.636719 196.820312 143.640625 193.746094 L 142.960938 193.042969 L 147.207031 184.691406 L 148.535156 185.984375 C 151.0625 188.433594 154.222656 190.210938 157.460938 191.527344 C 160.75 192.867188 164.175781 193.710938 167.699219 194.070312 L 167.699219 169.722656 C 164.003906 168.785156 160.261719 167.664062 156.769531 166.179688 C 153.484375 164.785156 150.671875 162.722656 148.417969 159.953125 C 145.863281 156.816406 144.992188 152.886719 144.992188 148.914062 C 144.992188 143.296875 147.050781 138.515625 151.152344 134.675781 C 155.59375 130.507812 161.75 128.769531 167.699219 128.136719 L 167.699219 120.664062 L 175.546875 120.664062 L 175.546875 127.980469 C 179.054688 128.203125 182.515625 128.828125 185.882812 129.867188 C 189.355469 130.9375 192.722656 132.425781 195.71875 134.496094 L 196.632812 135.128906 L 193.011719 143.671875 L 191.652344 142.808594 C 188.964844 141.101562 186.089844 139.746094 183.0625 138.761719 C 180.617188 137.964844 178.101562 137.417969 175.546875 137.183594 L 175.546875 161.753906 C 179.414062 162.71875 183.359375 163.832031 187.054688 165.289062 C 190.441406 166.621094 193.335938 168.671875 195.679688 171.457031 C 198.328125 174.601562 199.273438 178.523438 199.273438 182.5625 C 199.273438 188.296875 197.027344 193.082031 192.789062 196.921875 C 188.117188 201.160156 181.71875 202.800781 175.546875 203.277344 Z M 167.699219 159.699219 L 167.699219 137.441406 C 164.4375 137.859375 161.007812 138.847656 158.582031 141.074219 C 156.335938 143.144531 155.191406 145.652344 155.191406 148.710938 C 155.191406 151.609375 156.144531 153.988281 158.546875 155.671875 C 161.152344 157.5 164.535156 158.773438 167.699219 159.699219 Z M 175.546875 194.050781 C 179.019531 193.65625 182.8125 192.714844 185.480469 190.511719 C 187.867188 188.539062 189.074219 186.074219 189.074219 182.972656 C 189.074219 179.964844 188.058594 177.519531 185.496094 175.832031 C 182.648438 173.957031 178.953125 172.675781 175.546875 171.75 Z M 175.546875 194.050781 " fill-opacity="1" fill-rule="evenodd"/><g clip-path="url(#0eb1cbbad1)"><path fill="#373435" d="M 272.058594 118.355469 L 329.328125 118.355469 C 338.429688 118.355469 345.875 125.800781 345.875 134.902344 L 345.875 287.679688 C 345.875 296.777344 338.429688 304.222656 329.328125 304.222656 L 272.058594 304.222656 C 262.957031 304.222656 255.511719 296.777344 255.511719 287.679688 L 255.511719 134.902344 C 255.511719 125.800781 262.957031 118.355469 272.058594 118.355469 Z M 272.058594 118.355469 " fill-opacity="1" fill-rule="evenodd"/></g><path fill="#fefefe" d="M 272.058594 123.449219 L 329.328125 123.449219 C 335.625 123.449219 340.78125 128.601562 340.78125 134.902344 L 340.78125 287.679688 C 340.78125 293.976562 335.625 299.128906 329.328125 299.128906 L 272.058594 299.128906 C 265.757812 299.128906 260.605469 293.976562 260.605469 287.679688 L 260.605469 134.902344 C 260.605469 128.601562 265.757812 123.449219 272.058594 123.449219 Z M 272.058594 123.449219 " fill-opacity="1" fill-rule="evenodd"/><path fill="#373435" d="M 280.558594 122.023438 L 320.828125 122.023438 L 320.828125 125.640625 C 320.828125 127.628906 319.203125 129.257812 317.210938 129.257812 L 284.175781 129.257812 C 282.183594 129.257812 280.558594 127.628906 280.558594 125.640625 Z M 280.558594 122.023438 " fill-opacity="1" fill-rule="evenodd"/><path fill="#359631" d="M 304.265625 244.550781 L 304.265625 251.578125 L 297.542969 251.578125 L 297.542969 244.632812 C 293.675781 244.328125 289.882812 243.519531 286.246094 242.136719 C 282.832031 240.839844 279.496094 239.019531 276.929688 236.382812 L 276.347656 235.78125 L 279.988281 228.625 L 281.125 229.730469 C 283.289062 231.832031 285.996094 233.351562 288.769531 234.480469 C 291.589844 235.628906 294.527344 236.351562 297.542969 236.660156 L 297.542969 215.796875 C 294.378906 214.992188 291.171875 214.03125 288.179688 212.761719 C 285.363281 211.570312 282.953125 209.804688 281.023438 207.429688 C 278.835938 204.742188 278.089844 201.371094 278.089844 197.96875 C 278.089844 193.15625 279.851562 189.0625 283.363281 185.769531 C 287.171875 182.199219 292.445312 180.710938 297.542969 180.167969 L 297.542969 173.765625 L 304.265625 173.765625 L 304.265625 180.03125 C 307.273438 180.222656 310.242188 180.757812 313.125 181.648438 C 316.101562 182.5625 318.988281 183.839844 321.554688 185.613281 L 322.339844 186.15625 L 319.234375 193.476562 L 318.066406 192.738281 C 315.765625 191.277344 313.304688 190.113281 310.707031 189.269531 C 308.613281 188.585938 306.457031 188.117188 304.265625 187.917969 L 304.265625 208.972656 C 307.585938 209.796875 310.960938 210.75 314.128906 212 C 317.03125 213.140625 319.511719 214.902344 321.519531 217.285156 C 323.785156 219.980469 324.597656 223.34375 324.597656 226.800781 C 324.597656 231.710938 322.675781 235.816406 319.042969 239.105469 C 315.039062 242.738281 309.558594 244.140625 304.265625 244.550781 Z M 297.542969 207.210938 L 297.542969 188.140625 C 294.746094 188.496094 291.8125 189.34375 289.734375 191.25 C 287.808594 193.023438 286.828125 195.171875 286.828125 197.796875 C 286.828125 200.277344 287.644531 202.316406 289.703125 203.761719 C 291.933594 205.328125 294.832031 206.417969 297.542969 207.210938 Z M 304.265625 236.648438 C 307.246094 236.304688 310.492188 235.496094 312.78125 233.613281 C 314.828125 231.925781 315.859375 229.808594 315.859375 227.152344 C 315.859375 224.574219 314.988281 222.476562 312.792969 221.03125 C 310.355469 219.425781 307.191406 218.328125 304.265625 217.535156 Z M 304.265625 236.648438 " fill-opacity="1" fill-rule="evenodd"/><path fill="#f58634" d="M 301.089844 91.183594 C 290.910156 73.386719 269.6875 63.9375 248.953125 69.496094 C 245.476562 70.425781 242.199219 71.726562 239.152344 73.347656 C 258.226562 69.972656 277.089844 78.921875 286.789062 95.015625 Z M 301.089844 91.183594 " fill-opacity="1" fill-rule="evenodd"/><path fill="#f58634" d="M 297.816406 108.320312 L 303.828125 97.136719 L 309.839844 85.957031 L 276.222656 94.964844 L 287.019531 101.644531 Z M 297.816406 108.320312 " fill-opacity="1" fill-rule="evenodd"/><path fill="#f58634" d="M 244.089844 318.351562 C 224.308594 323.742188 202.621094 315.417969 191.886719 296.828125 C 190.085938 293.710938 188.691406 290.472656 187.683594 287.171875 C 198.78125 303.046875 218.449219 310.058594 236.6875 305.535156 Z M 244.089844 318.351562 " fill-opacity="1" fill-rule="evenodd"/><g clip-path="url(#9f71465b3a)"><path fill="#f58634" d="M 253.894531 303.925781 L 250.238281 316.082031 L 246.582031 328.242188 L 237.878906 313.167969 L 229.179688 298.097656 L 241.535156 301.011719 Z M 253.894531 303.925781 " fill-opacity="1" fill-rule="evenodd"/></g></svg>