<svg xmlns="http://www.w3.org/2000/svg" xmlns:xlink="http://www.w3.org/1999/xlink" width="201" zoomAndPan="magnify" viewBox="0 0 150.75 150.749998" height="201" preserveAspectRatio="xMidYMid meet" version="1.0"><defs><clipPath id="3c61db9746"><path d="M 0 0 L 150.5 0 L 150.5 150.5 L 0 150.5 Z M 0 0 " clip-rule="nonzero"/></clipPath></defs><g clip-path="url(#3c61db9746)"><path fill="#000000" d="M 128.457031 22.039062 C 114.246094 7.828125 95.347656 0 75.25 0 C 55.148438 0 36.253906 7.828125 22.039062 22.039062 C 7.828125 36.253906 0 55.148438 0 75.25 C 0 95.347656 7.828125 114.246094 22.039062 128.457031 C 36.253906 142.671875 55.148438 150.496094 75.25 150.496094 C 95.347656 150.496094 114.246094 142.671875 128.457031 128.457031 C 142.671875 114.246094 150.496094 95.347656 150.496094 75.25 C 150.496094 55.148438 142.671875 36.253906 128.457031 22.039062 Z M 25.453125 25.453125 C 38.753906 12.152344 56.4375 4.828125 75.25 4.828125 C 94.058594 4.828125 111.742188 12.152344 125.042969 25.453125 C 138.34375 38.753906 145.667969 56.4375 145.667969 75.25 C 145.667969 90.886719 140.601562 105.742188 131.253906 117.949219 C 123.8125 107.546875 111.933594 101.402344 99.03125 101.402344 L 51.464844 101.402344 C 38.566406 101.402344 26.683594 107.546875 19.242188 117.949219 C 9.894531 105.742188 4.828125 90.886719 4.828125 75.25 C 4.828125 56.4375 12.152344 38.753906 25.453125 25.453125 Z M 75.25 97.433594 C 94.582031 97.433594 110.3125 81.707031 110.3125 62.371094 C 110.3125 43.039062 94.582031 27.308594 75.25 27.308594 C 55.914062 27.308594 40.1875 43.039062 40.1875 62.371094 C 40.1875 81.707031 55.914062 97.433594 75.25 97.433594 Z M 75.25 97.433594 " fill-opacity="1" fill-rule="nonzero"/></g></svg>